# xmcd
#
# Track frame offsets: 
#        150
#        10590
#        31152
#        71372
#        93732
#        149325
#        182720
#        229062
#
# Disc length: 3746 seconds
#
# Revision: 0
# Processed by: cddbd v1.5.2PL0 Copyright (c) Steve Scherf et al.
# Submitted via: ExactAudioCopy v0.99pb5
#
DISCID=600ea008
DTITLE=Cream  - Ulyssees (Killing Floor)  
DYEAR=1900
DGENRE=
TTITLE0=Introduction
TTITLE1=Tales of Brave Ulysses
TTITLE2=Sunshine of Your Love
TTITLE3=Sittin' On Top of the World
TTITLE4=N.S.U.
TTITLE5=Train Time
TTITLE6=Steppin' Out
TTITLE7=Toad
EXTD=
EXTT0=
EXTT1=
EXTT2=
EXTT3=
EXTT4=
EXTT5=
EXTT6=
EXTT7=
PLAYORDER=
